<svg xmlns="http://www.w3.org/2000/svg" xmlns:xlink="http://www.w3.org/1999/xlink" width="500"
    zoomAndPan="magnify" viewBox="0 0 375 374.999991" height="500"
    preserveAspectRatio="xMidYMid meet" version="1.0">
    <path fill="#000000"
        d="M 187.5 53.101562 C 223.574219 89.175781 259.648438 125.25 295.800781 161.398438 L 348.898438 161.398438 C 295.125 107.625 241.273438 53.773438 187.5 0 C 133.726562 53.773438 79.875 107.625 26.101562 161.398438 L 79.199219 161.398438 C 115.273438 125.324219 151.425781 89.175781 187.5 53.101562 Z M 187.5 268.800781 L 214.050781 242.25 C 195.824219 224.023438 177.601562 205.800781 159.300781 187.5 L 187.5 159.300781 C 214.574219 186.375 241.726562 213.523438 268.800781 240.601562 C 241.726562 267.675781 214.648438 294.824219 187.5 321.898438 C 151.574219 285.976562 115.574219 249.976562 79.648438 214.050781 L 106.199219 187.5 C 133.273438 214.574219 160.425781 241.726562 187.5 268.800781 Z M 106.199219 187.5 L 0 187.5 C 62.476562 249.976562 125.023438 312.523438 187.5 375 C 249.976562 312.523438 312.523438 249.976562 375 187.5 L 268.800781 187.5 C 241.726562 160.425781 214.648438 133.273438 187.5 106.199219 C 159.976562 133.726562 133.425781 160.351562 106.199219 187.5 Z M 106.199219 187.5 "
        fill-opacity="1" fill-rule="evenodd" />
</svg>